<!--
  ParvuSsh symbolic icon, for window lists and notifications.

  Design notes, the metaphor and the HIG rules it follows: docs/ICONS.md
  SPDX-License-Identifier: GPL-3.0-or-later
-->
<svg xmlns="http://www.w3.org/2000/svg" width="16" height="16" viewBox="0 0 16 16">
  <title>ParvuSsh</title>
  <path fill="#000" fill-rule="evenodd" d="M 6.9 1 H 13 A 2 2 0 0 1 15 3 V 13 A 2 2 0 0 1 13 15 H 3 A 2 2 0 0 1 1 13 V 5.1 Z M 6.9 2.5 L 2.5 5.7 V 13 A 0.5 0.5 0 0 0 3 13.5 H 13 A 0.5 0.5 0 0 0 13.5 13 V 3 A 0.5 0.5 0 0 0 13 2.5 Z"/>
  <circle cx="5" cy="5.6" r="1" fill="#000"/>
  <path d="M 7.6 6.2 L 10.2 8.8 L 7.6 11.4" fill="none" stroke="#000" stroke-width="1.6" stroke-linecap="round" stroke-linejoin="round"/>
</svg>
